STARTFONT 2.1
FONT -Monotype-Book Antiqua-Regular-R-Normal--36-360-75-75-P-181-iso8859-9
SIZE 36 75 75
FONTBOUNDINGBOX 45 47 -5 -11

STARTPROPERTIES 24
FOUNDRY "Monotype"
FAMILY_NAME "Book Antiqua"
WEIGHT_NAME "Regular"
SLANT "R"
SETWIDTH_NAME "Normal"
ADD_STYLE_NAME ""
PIXEL_SIZE 36
POINT_SIZE 360
RESOLUTION_X 75
RESOLUTION_Y 75
SPACING "P"
AVERAGE_WIDTH 181
CHARSET_REGISTRY "iso8859"
CHARSET_ENCODING "9"
FACE_NAME "Book Antiqua ISO Latin5"
_DEC_DEVICE_FONTNAMES "PS=bookantiqua-lat5"
COPYRIGHT "Copyright (c) 1993 Monotype Typography Ltd."
CAP_HEIGHT 32
X_HEIGHT 21
WEIGHT 10
QUAD_WIDTH 23
DEFAULT_CHAR 160
FONT_DESCENT 11
FONT_ASCENT 36
ENDPROPERTIES

CHARS 191

STARTCHAR space
ENCODING 32
SWIDTH 250 0
DWIDTH 10 0
BBX 0 0 0 0
BITMAP
ENDCHAR

STARTCHAR exclam
ENCODING 33
SWIDTH 278 0
DWIDTH 11 0
BBX 4 27 3 0
BITMAP
30
F0
F0
F0
F0
F0
F0
F0
F0
70
60
60
60
60
60
60
60
60
60
40
00
00
00
F0
F0
F0
F0
ENDCHAR

STARTCHAR quotedbl
ENCODING 34
SWIDTH 371 0
DWIDTH 14 0
BBX 11 11 2 16
BITMAP
60C0
F1E0
F1E0
F1E0
F1E0
61E0
60C0
60C0
60C0
60C0
60C0
ENDCHAR

STARTCHAR numbersign
ENCODING 35
SWIDTH 606 0
DWIDTH 23 0
BBX 21 27 1 0
BITMAP
01C0C0
0181C0
0181C0
0381C0
038180
038180
038180
030180
7FFFF8
7FFFF8
7BFFF8
070300
070300
070300
060700
060700
FFFFF0
FFFFF0
FFFFF0
0E0600
0E0600
0C0E00
0C0E00
0C0E00
1C0C00
1C0C00
1C0C00
ENDCHAR

STARTCHAR dollar
ENCODING 36
SWIDTH 500 0
DWIDTH 19 0
BBX 17 33 1 -4
BITMAP
008000
008000
008000
07F800
1E9E00
388600
708200
608200
E08200
E08000
E08000
E08000
F08000
7C8000
7FF000
3FFE00
07FF00
009F80
008780
008380
008380
008380
408380
C08300
C08700
C08600
E08C00
FEF800
0FE000
008000
008000
008000
008000
ENDCHAR

STARTCHAR percent
ENCODING 37
SWIDTH 840 0
DWIDTH 32 0
BBX 24 28 4 -1
BITMAP
1F0030
318020
60C060
60E040
E0E0C0
E0E080
E0E180
E0E300
60C300
60C600
318400
1F0C00
000800
001800
001000
0030F8
00218C
006306
004307
00C707
008707
018707
030707
020706
060306
04018C
0C00F0
080000
ENDCHAR

STARTCHAR ampersand
ENCODING 38
SWIDTH 778 0
DWIDTH 30 0
BBX 26 27 2 0
BITMAP
00F00000
01F80000
033C0000
061C0000
061C0000
0E180000
0E180000
0E300000
0E700000
07400000
07800000
0781FFC0
0F83FFC0
1BC07F80
31E03000
71E03000
E0F03000
E0783000
E03C6000
E03E6000
E01FC000
F00F8000
F003E000
7807F840
3E1CFFC0
1FF07F00
0FC01E00
ENDCHAR

STARTCHAR quoteright
ENCODING 39
SWIDTH 278 0
DWIDTH 11 0
BBX 7 10 1 18
BITMAP
02
1E
1C
3C
38
38
70
60
C0
80
ENDCHAR

STARTCHAR parenleft
ENCODING 40
SWIDTH 333 0
DWIDTH 13 0
BBX 9 38 3 -10
BITMAP
0080
0180
0300
0600
0E00
0C00
1C00
1800
3800
3000
7000
7000
7000
F000
E000
E000
E000
E000
E000
E000
E000
E000
E000
E000
F000
7000
7000
7000
3000
3800
3800
1C00
0C00
0E00
0600
0300
0180
0180
ENDCHAR

STARTCHAR parenright
ENCODING 41
SWIDTH 333 0
DWIDTH 13 0
BBX 9 38 1 -10
BITMAP
4000
C000
6000
3000
3800
1800
1C00
0C00
0E00
0600
0700
0700
0700
0780
0380
0380
0380
0380
0380
0380
0380
0380
0380
0380
0380
0380
0700
0700
0700
0E00
0E00
0C00
1C00
1800
3000
6000
6000
C000
ENDCHAR

STARTCHAR asterisk
ENCODING 42
SWIDTH 389 0
DWIDTH 15 0
BBX 13 13 1 13
BITMAP
0700
0700
0700
C210
F278
FEF8
0F80
0F00
1D80
39C0
78E0
30C0
0040
ENDCHAR

STARTCHAR plus
ENCODING 43
SWIDTH 606 0
DWIDTH 23 0
BBX 19 19 2 4
BITMAP
00E000
00E000
00E000
00E000
00E000
00E000
00E000
00E000
FFFFE0
FFFFE0
FFFFE0
00E000
00E000
00E000
00E000
00E000
00E000
00E000
00E000
ENDCHAR

STARTCHAR comma
ENCODING 44
SWIDTH 250 0
DWIDTH 10 0
BBX 8 10 0 -5
BITMAP
07
0F
1E
1E
1C
18
38
30
60
E0
ENDCHAR

STARTCHAR minus
ENCODING 45
SWIDTH 606 0
DWIDTH 23 0
BBX 19 3 2 12
BITMAP
FFFFE0
FFFFE0
FFFFE0
ENDCHAR

STARTCHAR period
ENCODING 46
SWIDTH 250 0
DWIDTH 10 0
BBX 4 4 3 0
BITMAP
F0
F0
F0
F0
ENDCHAR

STARTCHAR slash
ENCODING 47
SWIDTH 606 0
DWIDTH 23 0
BBX 18 36 1 -8
BITMAP
0001C0
0001C0
000380
000380
000300
000700
000600
000E00
000E00
001C00
001C00
001800
003800
003000
007000
007000
006000
00E000
00C000
01C000
01C000
038000
038000
030000
070000
060000
0E0000
0E0000
0C0000
1C0000
180000
380000
380000
300000
700000
E00000
ENDCHAR

STARTCHAR zero
ENCODING 48
SWIDTH 500 0
DWIDTH 19 0
BBX 16 27 2 0
BITMAP
07F0
0C78
181C
301E
700E
700E
700F
E007
E007
E007
E007
E007
E007
E007
E007
E007
E007
E007
E007
F006
7006
700E
700C
380C
3818
1E30
07E0
ENDCHAR

STARTCHAR one
ENCODING 49
SWIDTH 500 0
DWIDTH 19 0
BBX 15 27 1 0
BITMAP
0040
01C0
07C0
3DC0
F1C0
C1C0
01C0
01C0
01C0
01C0
01C0
01C0
01C0
01C0
01C0
01C0
01C0
01C0
01C0
01C0
01C0
01C0
01C0
01C0
03C0
03E0
3FFE
ENDCHAR

STARTCHAR two
ENCODING 50
SWIDTH 500 0
DWIDTH 19 0
BBX 18 27 1 0
BITMAP
07F000
1FFC00
3FFE00
383E00
301F00
600F00
600F00
400700
000700
000700
000700
000E00
000E00
001C00
001800
003800
007000
00E000
01C000
038000
070000
0E0000
0C0000
100000
3FFFC0
7FFFC0
FFFFC0
ENDCHAR

STARTCHAR three
ENCODING 51
SWIDTH 500 0
DWIDTH 19 0
BBX 17 27 0 0
BITMAP
03E000
1FF800
3FFC00
303E00
601E00
600E00
400E00
000E00
000C00
001800
001000
006000
07FE00
061F00
020F80
000780
000780
000380
000380
000380
C00380
400700
600600
600C00
381800
3FF000
0F8000
ENDCHAR

STARTCHAR four
ENCODING 52
SWIDTH 500 0
DWIDTH 19 0
BBX 18 27 0 0
BITMAP
000400
001C00
003C00
003C00
006C00
005C00
009C00
019C00
011C00
031C00
061C00
041C00
0C1C00
081C00
181C00
101C00
301C00
601C00
7FFFC0
FFFFC0
001C00
001C00
001C00
001C00
001C00
003E00
03FFC0
ENDCHAR

STARTCHAR five
ENCODING 53
SWIDTH 500 0
DWIDTH 19 0
BBX 17 27 0 0
BITMAP
3FFF00
1FFF00
1FFF00
100000
100000
100000
100000
100000
100000
11F000
17FC00
1FFE00
181F00
300F80
000780
000780
000380
000380
000380
000380
400300
C00700
400600
600C00
303800
3FE000
1F8000
ENDCHAR

STARTCHAR six
ENCODING 54
SWIDTH 500 0
DWIDTH 19 0
BBX 16 27 2 0
BITMAP
000C
0078
00E0
0380
0700
0E00
1C00
3800
3800
7000
7000
71F8
F7FC
FC3E
F81F
F00F
E007
E007
E007
E007
F007
F006
700E
700C
381C
1E38
07E0
ENDCHAR

STARTCHAR seven
ENCODING 55
SWIDTH 500 0
DWIDTH 19 0
BBX 17 27 2 0
BITMAP
FFFF80
FFFF80
FFFF00
C00300
800600
800400
800C00
801800
001800
003000
003000
006000
006000
00C000
01C000
018000
038000
030000
070000
060000
0E0000
1E0000
1C0000
3C0000
380000
780000
F00000
ENDCHAR

STARTCHAR eight
ENCODING 56
SWIDTH 500 0
DWIDTH 19 0
BBX 17 27 1 0
BITMAP
07F800
0E3C00
380E00
300700
700700
700700
700700
780600
780E00
3E0C00
3F9800
1FE000
07F800
07FC00
1C7E00
381F00
700F80
600780
E00380
E00380
E00380
E00300
600300
700600
380C00
1E3800
0FE000
ENDCHAR

STARTCHAR nine
ENCODING 57
SWIDTH 500 0
DWIDTH 19 0
BBX 16 27 1 0
BITMAP
07F0
1C38
381C
700E
700E
E007
E007
E007
E007
E007
F00F
F00F
781F
7C37
3FEF
0F8E
000E
000E
001C
001C
0038
0070
00E0
01C0
0780
7E00
3000
ENDCHAR

STARTCHAR colon
ENCODING 58
SWIDTH 250 0
DWIDTH 10 0
BBX 4 18 3 0
BITMAP
F0
F0
F0
F0
00
00
00
00
00
00
00
00
00
00
F0
F0
F0
F0
ENDCHAR

STARTCHAR semicolon
ENCODING 59
SWIDTH 250 0
DWIDTH 10 0
BBX 8 23 0 -5
BITMAP
1E
1E
1E
1E
00
00
00
00
00
00
00
00
03
1E
1E
1C
1C
38
38
70
60
C0
80
ENDCHAR

STARTCHAR less
ENCODING 60
SWIDTH 606 0
DWIDTH 23 0
BBX 19 20 2 3
BITMAP
000020
0000E0
0003E0
000FC0
007F00
01FC00
07E000
1F8000
7E0000
F00000
F80000
7E0000
1FC000
03F000
00FC00
003F00
000FC0
0003E0
000060
000020
ENDCHAR

STARTCHAR equal
ENCODING 61
SWIDTH 606 0
DWIDTH 23 0
BBX 19 9 2 9
BITMAP
FFFFE0
FFFFE0
FFFFE0
000000
000000
000000
FFFFE0
FFFFE0
FFFFE0
ENDCHAR

STARTCHAR greater
ENCODING 62
SWIDTH 606 0
DWIDTH 23 0
BBX 19 20 2 3
BITMAP
800000
E00000
F80000
7E0000
1FC000
07F000
00FC00
003F00
000FC0
0001E0
0003E0
000FC0
007F00
01FC00
07E000
1F8000
7E0000
F80000
E00000
800000
ENDCHAR

STARTCHAR question
ENCODING 63
SWIDTH 444 0
DWIDTH 17 0
BBX 13 27 2 0
BITMAP
0F80
3FE0
7FF0
60F8
4078
C038
0038
0038
0038
0070
00F0
00E0
01C0
0380
0700
0600
0C00
0C00
0C00
0600
0000
0000
0000
0F00
0F00
0F00
0F00
ENDCHAR

STARTCHAR at
ENCODING 64
SWIDTH 747 0
DWIDTH 28 0
BBX 28 31 0 -4
BITMAP
001FE000
00701C00
01C00600
03000100
06000080
0C0000C0
18000040
10000040
30039820
200C5820
60183820
60303820
40603020
C0E03020
C0C07020
C1C06040
C180E040
C380E040
C381E080
4382C180
43C4C300
41F8E610
60E0F810
20000020
30000060
180000C0
08000080
06000300
03000600
00E03800
001FC000
ENDCHAR

STARTCHAR A
ENCODING 65
SWIDTH 778 0
DWIDTH 30 0
BBX 28 27 1 0
BITMAP
00060000
00060000
000F0000
000F0000
000F8000
001B8000
001B8000
0033C000
0031C000
0061E000
0061E000
00C0F000
00C0F000
00C07000
01807800
01003800
03FFFC00
03FFFC00
06001E00
06001E00
06000E00
0C000F00
0C000F00
1C000780
18000780
3E000FC0
FF003FF0
ENDCHAR

STARTCHAR B
ENCODING 66
SWIDTH 611 0
DWIDTH 23 0
BBX 21 27 1 0
BITMAP
FFFF80
1F07E0
0E01E0
0E00F0
0E00F0
0E00F0
0E00F0
0E00E0
0E01C0
0E0380
0E1F00
0FFF00
0E0FE0
0E01F0
0E00F8
0E0078
0E0078
0E0078
0E0078
0E0078
0E0070
0E00F0
0E00E0
0E01E0
1E07C0
1FFF00
3FF800
ENDCHAR

STARTCHAR C
ENCODING 67
SWIDTH 709 0
DWIDTH 27 0
BBX 25 27 1 0
BITMAP
001FF000
00FFFF80
03E01F00
07800300
0E000300
1C000300
3C000300
78000000
78000000
70000000
F0000000
F0000000
F0000000
F0000000
F0000000
F0000000
F0000000
78000000
78000000
7C000000
3E000000
1E000000
0F800000
07C00180
03F00700
00FFFE00
001FE000
ENDCHAR

STARTCHAR D
ENCODING 68
SWIDTH 774 0
DWIDTH 29 0
BBX 27 27 1 0
BITMAP
FFFF8000
7FFFF800
1E007C00
0E001F00
0E000F80
0E000780
0E0003C0
0E0003C0
0E0001E0
0E0001E0
0E0001E0
0E0001E0
0E0001E0
0E0001E0
0E0001E0
0E0001E0
0E0001C0
0E0001C0
0E0003C0
0E000380
0E000780
0E000700
0E000E00
0E003C00
1E00F800
3FFFE000
3FFE0000
ENDCHAR

STARTCHAR E
ENCODING 69
SWIDTH 611 0
DWIDTH 23 0
BBX 21 27 1 0
BITMAP
FFFFF0
3FFFF0
1E0070
0E0020
0E0020
0E0020
0E0000
0E0000
0E0000
0E0080
0E0080
0E0080
0FFF80
0FFF80
0E0080
0E0080
0E0080
0E0080
0E0000
0E0000
0E0018
0E0010
0E0010
0E0010
1E0030
1FFFF0
FFFFF0
ENDCHAR

STARTCHAR F
ENCODING 70
SWIDTH 556 0
DWIDTH 21 0
BBX 20 27 1 0
BITMAP
FFFFF0
1FFFE0
0F0060
0E0020
0E0020
0E0020
0E0000
0E0000
0E0000
0E0080
0E0080
0E0080
0FFF80
0FFF80
0E0080
0E0080
0E0080
0E0080
0E0000
0E0000
0E0000
0E0000
0E0000
0E0000
0F0000
1F0000
FFE000
ENDCHAR

STARTCHAR G
ENCODING 71
SWIDTH 763 0
DWIDTH 29 0
BBX 27 27 1 0
BITMAP
001FF000
00FFFF00
03E00FC0
070001C0
0E000080
1C000080
3C000080
78000000
78000000
70000000
F0000000
F0000000
F0000000
F0000000
F0000000
F0000000
F0003FE0
780003C0
780003C0
7C0003C0
3C0003C0
1E0003C0
1F0003C0
07C003C0
03F00FC0
00FFFE00
001FE000
ENDCHAR

STARTCHAR H
ENCODING 72
SWIDTH 832 0
DWIDTH 32 0
BBX 30 27 1 0
BITMAP
FFE01FFC
1F0003E0
0E0001C0
0E0001C0
0E0001C0
0E0001C0
0E0001C0
0E0001C0
0E0001C0
0E0001C0
0E0001C0
0E0001C0
0FFFFFC0
0FFFFFC0
0E0001C0
0E0001C0
0E0001C0
0E0001C0
0E0001C0
0E0001C0
0E0001C0
0E0001C0
0E0001C0
0E0001C0
0F0001E0
1F0003E0
FFE01FFC
ENDCHAR

STARTCHAR I
ENCODING 73
SWIDTH 337 0
DWIDTH 13 0
BBX 11 27 1 0
BITMAP
FFE0
1F00
0E00
0E00
0E00
0E00
0E00
0E00
0E00
0E00
0E00
0E00
0E00
0E00
0E00
0E00
0E00
0E00
0E00
0E00
0E00
0E00
0E00
0E00
0E00
1F00
FFE0
ENDCHAR

STARTCHAR J
ENCODING 74
SWIDTH 333 0
DWIDTH 13 0
BBX 12 34 0 -7
BITMAP
7FF0
0F80
0700
0700
0700
0700
0700
0700
0700
0700
0700
0700
0700
0700
0700
0700
0700
0700
0700
0700
0700
0700
0700
0700
0700
0700
0700
0700
0600
0E00
0C00
F800
F000
C000
ENDCHAR

STARTCHAR K
ENCODING 75
SWIDTH 726 0
DWIDTH 28 0
BBX 26 27 1 0
BITMAP
FFE01F80
1F001C00
0E003800
0E007000
0E00E000
0E01C000
0E038000
0E060000
0E0C0000
0E180000
0E300000
0E600000
0EE00000
0FF00000
0EF80000
0E7C0000
0E3E0000
0E1F0000
0E0F8000
0E07E000
0E03F000
0E01F800
0E00FC00
0E007E00
0E003F00
1F001F80
FFE00FC0
ENDCHAR

STARTCHAR L
ENCODING 76
SWIDTH 611 0
DWIDTH 23 0
BBX 21 27 1 0
BITMAP
FFE000
1F0000
0E0000
0E0000
0E0000
0E0000
0E0000
0E0000
0E0000
0E0000
0E0000
0E0000
0E0000
0E0000
0E0000
0E0000
0E0000
0E0000
0E0000
0E0000
0E0008
0E0008
0E0008
0E0018
1E0038
1FFFF8
3FFFF8
ENDCHAR

STARTCHAR M
ENCODING 77
SWIDTH 946 0
DWIDTH 36 0
BBX 34 27 1 0
BITMAP
FE00003FC0
1E00003E00
1F00003C00
1F00007C00
1F80006C00
1B8000DC00
1BC000DC00
1BC0019C00
19E0019C00
19E0031C00
18F0031C00
18F0061C00
1870061C00
18780C1C00
18380C1C00
183C081C00
183C181C00
181E101C00
181E301C00
180F301C00
180F601C00
1807E01C00
1807C01C00
1803C01C00
1803801E00
3C01803E00
FF0181FFC0
ENDCHAR

STARTCHAR N
ENCODING 78
SWIDTH 831 0
DWIDTH 32 0
BBX 29 28 1 -1
BITMAP
FE000FF8
3E0001C0
1F0000C0
1F8000C0
1BC000C0
1BC000C0
19E000C0
19F000C0
18F800C0
187C00C0
183C00C0
181E00C0
181F00C0
180F80C0
180780C0
1803C0C0
1803E0C0
1801F0C0
1800F8C0
180078C0
18003CC0
18003EC0
18001FC0
18000FC0
180007C0
3C0003C0
FF0001C0
00000040
ENDCHAR

STARTCHAR O
ENCODING 79
SWIDTH 786 0
DWIDTH 30 0
BBX 28 27 1 0
BITMAP
001FC000
01FFF800
03803E00
0F000F00
1E000780
3C0003C0
380003E0
780001E0
700001E0
700000F0
F00000F0
F00000F0
F00000F0
F00000F0
F00000F0
F00000F0
F00000E0
780000E0
780001E0
7C0001C0
3C0001C0
3E000380
1F000700
0F800E00
07E03C00
01FFE000
003F0000
ENDCHAR

STARTCHAR P
ENCODING 80
SWIDTH 604 0
DWIDTH 23 0
BBX 22 27 1 0
BITMAP
FFFFC0
1F83F0
0E00F8
0E007C
0E003C
0E003C
0E003C
0E003C
0E003C
0E0038
0E0070
0E00F0
0E23C0
0E3F00
0E0000
0E0000
0E0000
0E0000
0E0000
0E0000
0E0000
0E0000
0E0000
0E0000
0F0000
1F0000
FFE000
ENDCHAR

STARTCHAR Q
ENCODING 81
SWIDTH 786 0
DWIDTH 30 0
BBX 28 33 1 -6
BITMAP
001FC000
01FFF800
03C03E00
0F000F00
1E000780
3C0003C0
380003E0
780001E0
700001E0
700000F0
F00000F0
F00000F0
F00000F0
F00000F0
F00000F0
F00000F0
F00000E0
780000E0
780001E0
7C0001C0
3C0001C0
3E000380
1F000700
0F800E00
07E03C00
01FFF000
003F8000
000F8000
001FE000
0077FC00
0040FFF0
00001FE0
00000180
ENDCHAR

STARTCHAR R
ENCODING 82
SWIDTH 668 0
DWIDTH 25 0
BBX 24 27 1 0
BITMAP
FFFFC0
1F83E0
0E00F0
0E00F8
0E0078
0E0078
0E0078
0E0078
0E0070
0E00F0
0E00E0
0E03C0
0E7F00
0E7C00
0E3E00
0E1E00
0E0F00
0E0F80
0E0780
0E03C0
0E03E0
0E01F0
0E00F0
0E0078
0F007C
1F003E
FFE01F
ENDCHAR

STARTCHAR S
ENCODING 83
SWIDTH 525 0
DWIDTH 20 0
BBX 19 27 0 0
BITMAP
01FC00
0FFFC0
3C0380
780180
700080
E00080
E00080
E00000
E00000
F00000
F80000
7F0000
7FFE00
1FFF80
03FFC0
0007E0
0001E0
0001E0
0000E0
0000E0
4000E0
4001C0
4001C0
600380
780E00
7FFC00
0FE000
ENDCHAR

STARTCHAR T
ENCODING 84
SWIDTH 613 0
DWIDTH 23 0
BBX 23 27 0 0
BITMAP
FFFFFE
7FFFFC
40380C
403804
403804
403804
003800
003800
003800
003800
003800
003800
003800
003800
003800
003800
003800
003800
003800
003800
003800
003800
003800
003800
003800
007C00
03FF80
ENDCHAR

STARTCHAR U
ENCODING 85
SWIDTH 778 0
DWIDTH 30 0
BBX 28 27 0 0
BITMAP
FFE01FF0
1F0003C0
0E000180
0E000180
0E000180
0E000180
0E000180
0E000180
0E000180
0E000180
0E000180
0E000180
0E000180
0E000180
0E000180
0E000180
0E000180
0E000180
0E000180
0E000180
0F000180
0F000300
0F800300
07C00E00
03F03C00
01FFF800
007FE000
ENDCHAR

STARTCHAR V
ENCODING 86
SWIDTH 722 0
DWIDTH 27 0
BBX 27 27 0 0
BITMAP
FFE01FE0
1F000380
1E000300
0F000300
0F000300
07800600
07800600
07800C00
03C00C00
03C00800
01C01800
01E01800
01E03000
00F03000
00F02000
00706000
00786000
0078C000
0038C000
003C8000
003D8000
001F8000
001F0000
000F0000
000F0000
000E0000
00060000
ENDCHAR

STARTCHAR W
ENCODING 87
SWIDTH 1000 0
DWIDTH 38 0
BBX 38 27 0 0
BITMAP
FFC01803FC
1E003800F0
1E00380060
1E003C0060
0E007C00C0
0F007C00C0
0F005E00C0
0F00DE0080
0700CE0180
07018F0180
07818F0180
0781070300
0383078300
0383078300
0386038200
03C603C600
03C401C600
01CC01C400
01CC01EC00
01F800EC00
01F800EC00
00F000F800
00F0007800
00F0007800
00E0007800
00E0003000
0060003000
ENDCHAR

STARTCHAR X
ENCODING 88
SWIDTH 667 0
DWIDTH 25 0
BBX 24 27 1 0
BITMAP
FC001E
FE0038
1F0030
0F8070
0780E0
03C0C0
03C180
01E380
01E300
00F600
007C00
007800
003C00
003C00
007E00
006F00
00CF00
018780
018780
0303C0
0703C0
0601E0
0C00F0
1C00F0
380078
70007C
F0003F
ENDCHAR

STARTCHAR Y
ENCODING 89
SWIDTH 667 0
DWIDTH 25 0
BBX 24 27 1 0
BITMAP
080000
FC0007
7E000E
1E001C
0F0018
0F8038
078030
03C060
03C0E0
01E0C0
00E180
00F180
007300
007B00
003E00
003E00
001C00
001C00
001C00
001C00
001C00
001C00
001C00
001C00
001C00
003E00
01FFC0
ENDCHAR

STARTCHAR Z
ENCODING 90
SWIDTH 667 0
DWIDTH 25 0
BBX 23 27 1 0
BITMAP
3FFFFE
3FFFFE
30007C
300078
3000F0
3001F0
0003E0
0003C0
000780
000F80
000F00
001E00
003C00
007C00
007800
00F000
01E000
03E000
03C000
078000
0F0002
1F0006
1E0006
3C0006
780006
FFFFFE
FFFFFE
ENDCHAR

STARTCHAR bracketleft
ENCODING 91
SWIDTH 333 0
DWIDTH 13 0
BBX 7 36 4 -8
BITMAP
FE
FE
F0
E0
E0
E0
E0
E0
E0
E0
E0
E0
E0
E0
E0
E0
E0
E0
E0
E0
E0
E0
E0
E0
E0
E0
E0
E0
E0
E0
E0
E0
E0
E0
F8
FE
ENDCHAR

STARTCHAR backslash
ENCODING 92
SWIDTH 606 0
DWIDTH 23 0
BBX 18 36 1 -8
BITMAP
E00000
700000
700000
300000
380000
180000
1C0000
1C0000
0E0000
0E0000
060000
070000
030000
038000
038000
018000
01C000
00C000
00E000
006000
007000
007000
003000
003800
001800
001C00
001C00
000C00
000E00
000600
000700
000300
000380
000380
000180
0001C0
ENDCHAR

STARTCHAR bracketright
ENCODING 93
SWIDTH 333 0
DWIDTH 13 0
BBX 7 36 2 -8
BITMAP
FE
FE
0E
0E
0E
0E
0E
0E
0E
0E
0E
0E
0E
0E
0E
0E
0E
0E
0E
0E
0E
0E
0E
0E
0E
0E
0E
0E
0E
0E
0E
0E
0E
0E
3E
FE
ENDCHAR

STARTCHAR asciicircum
ENCODING 94
SWIDTH 606 0
DWIDTH 23 0
BBX 19 16 2 12
BITMAP
00E000
00E000
01F000
01B000
039800
031C00
060C00
0E0E00
0C0600
1C0700
180300
380180
300180
6000C0
6000C0
C00060
ENDCHAR

STARTCHAR underscore
ENCODING 95
SWIDTH 500 0
DWIDTH 19 0
BBX 19 2 0 -5
BITMAP
FFFFE0
FFFFE0
ENDCHAR

STARTCHAR quoteleft
ENCODING 96
SWIDTH 278 0
DWIDTH 11 0
BBX 7 10 1 18
BITMAP
02
0C
0C
18
38
38
70
70
F0
C0
ENDCHAR

STARTCHAR a
ENCODING 97
SWIDTH 500 0
DWIDTH 19 0
BBX 17 18 1 0
BITMAP
07E000
1FF000
707800
603C00
601C00
001C00
001C00
07FC00
1E1C00
781C00
701C00
E01C00
E01C00
E03C00
F0DC00
7F9E00
7F1F80
1C0000
ENDCHAR

STARTCHAR b
ENCODING 98
SWIDTH 553 0
DWIDTH 21 0
BBX 19 28 1 0
BITMAP
040000
FC0000
FC0000
1C0000
1C0000
1C0000
1C0000
1C0000
1C0000
1C0000
1C7F00
1CFF80
1D87C0
1E03C0
1E01E0
1C01E0
1C00E0
1C00E0
1C00E0
1C00E0
1C00E0
1C00C0
1C01C0
1C0180
1E0300
1F0600
1BF800
11F000
ENDCHAR

STARTCHAR c
ENCODING 99
SWIDTH 444 0
DWIDTH 17 0
BBX 15 18 1 0
BITMAP
01F8
07FE
1C1C
3004
7004
6004
E000
E000
E000
E000
F000
F000
F000
7800
7C00
3E06
1FFC
03F0
ENDCHAR

STARTCHAR d
ENCODING 100
SWIDTH 611 0
DWIDTH 23 0
BBX 20 28 2 0
BITMAP
0000C0
001F80
001F80
000380
000380
000380
000380
000380
000380
000380
00F380
07FF80
1C0F80
380780
700380
700380
E00380
E00380
E00380
E00380
E00380
F00380
F00780
780780
780D80
3E3B80
1FE3C0
0FC3F0
ENDCHAR

STARTCHAR e
ENCODING 101
SWIDTH 479 0
DWIDTH 18 0
BBX 16 18 1 0
BITMAP
03F8
0E3C
180E
380F
7007
7007
7007
F007
FFFF
F000
F000
F000
7000
7800
3C01
3E06
0FFE
03F0
ENDCHAR

STARTCHAR f
ENCODING 102
SWIDTH 333 0
DWIDTH 13 0
BBX 12 28 1 0
BITMAP
0070
01F0
03F0
0610
0C00
0C00
1C00
1C00
1C00
1C00
1C00
3FE0
FFE0
1C00
1C00
1C00
1C00
1C00
1C00
1C00
1C00
1C00
1C00
1C00
1C00
1C00
3E00
FFC0
ENDCHAR

STARTCHAR g
ENCODING 103
SWIDTH 556 0
DWIDTH 21 0
BBX 19 28 2 -10
BITMAP
07F000
1C3FE0
381FC0
301E00
700E00
700E00
700E00
700E00
780C00
381800
3E3000
0FE000
040000
180000
380000
3C0000
3FFF80
0FFF80
1803C0
7001C0
6001C0
E001C0
E001C0
E00180
F00300
700700
3C1C00
0FF000
ENDCHAR

STARTCHAR h
ENCODING 104
SWIDTH 582 0
DWIDTH 22 0
BBX 21 28 1 0
BITMAP
040000
FC0000
FC0000
1C0000
1C0000
1C0000
1C0000
1C0000
1C0000
1C0000
1C7E00
1CFF80
1D87C0
1E03C0
1C01C0
1C01C0
1C01C0
1C01C0
1C01C0
1C01C0
1C01C0
1C01C0
1C01C0
1C01C0
1C01C0
1C01C0
3E01E0
FF81F8
ENDCHAR

STARTCHAR i
ENCODING 105
SWIDTH 291 0
DWIDTH 11 0
BBX 9 27 1 0
BITMAP
3C00
3C00
3C00
3C00
0000
0000
0000
0000
0000
0400
7C00
FC00
1C00
1C00
1C00
1C00
1C00
1C00
1C00
1C00
1C00
1C00
1C00
1C00
1C00
3E00
FF80
ENDCHAR

STARTCHAR j
ENCODING 106
SWIDTH 234 0
DWIDTH 9 0
BBX 8 38 -2 -11
BITMAP
0F
0F
0F
0F
00
00
00
00
00
01
1F
3F
07
07
07
07
07
07
07
07
07
07
07
07
07
07
07
07
07
07
07
07
06
0E
0E
0C
18
F0
ENDCHAR

STARTCHAR k
ENCODING 107
SWIDTH 556 0
DWIDTH 21 0
BBX 20 28 1 0
BITMAP
040000
FC0000
3C0000
1C0000
1C0000
1C0000
1C0000
1C0000
1C0000
1C0000
1C03C0
1C0700
1C0E00
1C1C00
1C3000
1C6000
1CC000
1DC000
1DE000
1DF000
1C7800
1C3C00
1C3E00
1C1F00
1C0F80
1C07C0
3E03F0
FF81E0
ENDCHAR

STARTCHAR l
ENCODING 108
SWIDTH 291 0
DWIDTH 11 0
BBX 9 28 1 0
BITMAP
0400
FC00
FC00
1C00
1C00
1C00
1C00
1C00
1C00
1C00
1C00
1C00
1C00
1C00
1C00
1C00
1C00
1C00
1C00
1C00
1C00
1C00
1C00
1C00
1C00
1C00
3E00
FF80
ENDCHAR

STARTCHAR m
ENCODING 109
SWIDTH 883 0
DWIDTH 34 0
BBX 32 18 1 0
BITMAP
0C7E07C0
FCFF8FF0
7D8798F0
1E03E078
1E03C038
1C01C038
1C01C038
1C01C038
1C01C038
1C01C038
1C01C038
1C01C038
1C01C038
1C01C038
1C01C038
1C01C038
3E03E03C
FF8FF83F
ENDCHAR

STARTCHAR n
ENCODING 110
SWIDTH 582 0
DWIDTH 22 0
BBX 21 18 1 0
BITMAP
1C7E00
FCFF80
3D8780
1E03C0
1C01C0
1C01C0
1C01C0
1C01C0
1C01C0
1C01C0
1C01C0
1C01C0
1C01C0
1C01C0
1C01C0
1C01C0
3E01E0
FF81F8
ENDCHAR

STARTCHAR o
ENCODING 111
SWIDTH 546 0
DWIDTH 21 0
BBX 18 18 1 0
BITMAP
07F800
1E1E00
380F00
700780
7003C0
F003C0
E003C0
E003C0
E001C0
E001C0
F001C0
F001C0
F00380
780380
780300
3C0600
1F1C00
07F000
ENDCHAR

STARTCHAR p
ENCODING 112
SWIDTH 601 0
DWIDTH 23 0
BBX 20 28 1 -10
BITMAP
0C3F00
FCFFC0
3D87E0
1F01E0
1E00F0
1C00F0
1C0070
1C0070
1C0070
1C0070
1C0070
1C0060
1C00E0
1C00C0
1E0180
1F8700
1FFC00
1DF000
1C0000
1C0000
1C0000
1C0000
1C0000
1C0000
1C0000
1C0000
3E0000
FF8000
ENDCHAR

STARTCHAR q
ENCODING 113
SWIDTH 560 0
DWIDTH 21 0
BBX 20 28 1 -10
BITMAP
00F840
07FFC0
0C0FC0
380380
700380
700380
E00380
E00380
E00380
E00380
E00380
F00380
F00380
780380
780780
3E1B80
1FF380
0FC380
000380
000380
000380
000380
000380
000380
000380
000380
0007C0
001FF0
ENDCHAR

STARTCHAR r
ENCODING 114
SWIDTH 395 0
DWIDTH 15 0
BBX 13 18 1 0
BITMAP
0C78
FCF8
3DF8
1F18
1E08
1E00
1C00
1C00
1C00
1C00
1C00
1C00
1C00
1C00
1C00
1C00
3E00
FFC0
ENDCHAR

STARTCHAR s
ENCODING 115
SWIDTH 424 0
DWIDTH 16 0
BBX 14 18 1 0
BITMAP
1FF0
3878
6030
E010
E010
E000
F800
7F80
3FF0
1FF8
00FC
003C
801C
801C
C018
C038
F0E0
7FC0
ENDCHAR

STARTCHAR t
ENCODING 116
SWIDTH 326 0
DWIDTH 12 0
BBX 11 24 1 0
BITMAP
0400
1C00
1C00
1C00
1C00
1C00
1C00
3FE0
FFE0
1C00
1C00
1C00
1C00
1C00
1C00
1C00
1C00
1C00
1C00
1C00
1C00
1E20
1FC0
0F80
ENDCHAR

STARTCHAR u
ENCODING 117
SWIDTH 603 0
DWIDTH 23 0
BBX 21 18 1 0
BITMAP
0C01C0
FC0FC0
1C01C0
1C01C0
1C01C0
1C01C0
1C01C0
1C01C0
1C01C0
1C01C0
1C01C0
1C01C0
1C01C0
1C03C0
1E06C0
1F1DC0
0FF9E0
07E1F8
ENDCHAR

STARTCHAR v
ENCODING 118
SWIDTH 565 0
DWIDTH 21 0
BBX 20 18 0 0
BITMAP
FF87F0
3C01C0
3C00C0
1C0180
1E0180
0E0100
0F0300
070200
070600
078400
038C00
03CC00
01C800
01D800
00F000
00F000
00E000
006000
ENDCHAR

STARTCHAR w
ENCODING 119
SWIDTH 834 0
DWIDTH 32 0
BBX 30 18 1 0
BITMAP
FF8101FC
3C038070
1C038030
1C03C060
1E07C060
0E05C040
0E0DE0C0
0E08E080
0F18F080
07187180
07307100
07B07B00
03A03A00
03E03E00
03C01E00
01C01C00
01C01C00
01800C00
ENDCHAR

STARTCHAR x
ENCODING 120
SWIDTH 516 0
DWIDTH 20 0
BBX 18 18 1 0
BITMAP
380380
FC0700
3E0600
1E0C00
0F1800
07B000
03A000
03C000
01E000
01F000
037000
067800
0C3C00
0C1C00
181E00
300F80
F007C0
000200
ENDCHAR

STARTCHAR y
ENCODING 121
SWIDTH 556 0
DWIDTH 21 0
BBX 20 28 0 -10
BITMAP
FF87F0
3C00C0
1C01C0
1E0180
1E0180
0E0300
0F0300
070200
070600
078400
038C00
03C800
01C800
01F800
00F000
00F000
00E000
006000
004000
004000
00C000
008000
018000
010000
030000
660000
7E0000
780000
ENDCHAR

STARTCHAR z
ENCODING 122
SWIDTH 500 0
DWIDTH 19 0
BBX 17 18 1 0
BITMAP
3FFF80
380F00
201E00
203C00
203C00
007800
00F000
01E000
01E000
03C000
078000
0F0000
1E0080
1E0080
3C0180
780180
FFFF80
FFFF80
ENDCHAR

STARTCHAR braceleft
ENCODING 123
SWIDTH 333 0
DWIDTH 13 0
BBX 12 38 1 -10
BITMAP
0030
00C0
0180
0300
0600
0600
0E00
0E00
0F00
0F00
0F00
0F00
0700
0700
0700
0600
0C00
0800
3000
E000
1000
0C00
0600
0600
0700
0700
0700
0F00
0F00
0F00
0E00
0E00
0E00
0600
0600
0300
0180
0070
ENDCHAR

STARTCHAR bar
ENCODING 124
SWIDTH 606 0
DWIDTH 23 0
BBX 2 34 11 -7
BITMAP
C0
C0
C0
C0
C0
C0
C0
C0
C0
C0
C0
C0
C0
C0
C0
C0
C0
C0
C0
C0
C0
C0
C0
C0
C0
C0
C0
C0
C0
C0
C0
C0
C0
C0
ENDCHAR

STARTCHAR braceright
ENCODING 125
SWIDTH 333 0
DWIDTH 13 0
BBX 12 38 0 -10
BITMAP
C000
3000
1800
0C00
0600
0600
0700
0700
0F00
0F00
0F00
0F00
0E00
0E00
0E00
0600
0300
0100
00C0
0030
00C0
0300
0700
0600
0E00
0E00
0F00
0F00
0F00
0F00
0700
0700
0700
0600
0600
0C00
1800
E000
ENDCHAR

STARTCHAR asciitilde
ENCODING 126
SWIDTH 606 0
DWIDTH 23 0
BBX 19 6 2 10
BITMAP
3E0020
7F8020
FFF060
C1FFE0
803FC0
800780
ENDCHAR

STARTCHAR space
ENCODING 160
SWIDTH 250 0
DWIDTH 12 0
BBX 0 0 0 0
BITMAP
ENDCHAR

STARTCHAR exclamdown
ENCODING 161
SWIDTH 278 0
DWIDTH 11 0
BBX 4 26 3 -8
BITMAP
F0
F0
F0
F0
00
00
00
20
60
60
60
60
60
60
60
60
60
F0
F0
F0
F0
F0
F0
F0
F0
E0
ENDCHAR

STARTCHAR cent
ENCODING 162
SWIDTH 500 0
DWIDTH 19 0
BBX 14 24 2 1
BITMAP
0080
0080
0080
01F8
0FFC
188C
3084
7084
E084
E080
E080
E080
E080
F080
F080
F880
7880
3C80
1FBC
0FF8
0080
0080
0080
0080
ENDCHAR

STARTCHAR sterling
ENCODING 163
SWIDTH 500 0
DWIDTH 19 0
BBX 18 27 1 0
BITMAP
001F00
007FC0
01C380
030080
070080
0E0080
0E0000
1E0000
1E0000
1E0000
1E0000
1E0000
1E0000
FFFC00
FFF800
1C0000
1C0000
1C0000
1C0000
180000
180000
100080
300080
200080
FFFF80
DFFF80
803F80
ENDCHAR

STARTCHAR currency
ENCODING 164
SWIDTH 606 0
DWIDTH 23 0
BBX 20 20 2 4
BITMAP
41F020
E7FE70
7FFFE0
3E07C0
3801C0
7000E0
7000E0
E00070
E00070
E00070
E00070
E00070
600070
7000E0
7800E0
3C01C0
3E07C0
7FFFE0
E7FE70
40F020
ENDCHAR

STARTCHAR yen
ENCODING 165
SWIDTH 500 0
DWIDTH 19 0
BBX 19 27 -1 0
BITMAP
3800E0
FC00E0
3E00C0
1E01C0
0F0180
0F0300
070300
078300
038600
038600
01CC00
01CC00
00E800
00F800
3FFFE0
3FFFE0
007000
007000
007000
3FFFE0
3FFFE0
007000
007000
007000
007000
00F800
07FF00
ENDCHAR

STARTCHAR brokenbar
ENCODING 166
SWIDTH 606 0
DWIDTH 23 0
BBX 2 34 11 -7
BITMAP
C0
C0
C0
C0
C0
C0
C0
C0
C0
C0
C0
00
00
00
00
00
00
00
00
00
00
00
C0
C0
C0
C0
C0
C0
C0
C0
C0
C0
C0
C0
ENDCHAR

STARTCHAR section
ENCODING 167
SWIDTH 500 0
DWIDTH 19 0
BBX 16 32 2 -5
BITMAP
03F8
0FFC
1C3C
300C
200C
600C
6000
7000
7800
7E00
1FE0
3FF8
71FE
603E
E00F
E007
F007
7C06
7F86
3FEC
0FF8
01FE
003E
000E
000E
0006
6006
600C
600C
7838
7FE0
0F80
ENDCHAR

STARTCHAR dieresis
ENCODING 168
SWIDTH 333 0
DWIDTH 13 0
BBX 12 4 0 19
BITMAP
6060
F0F0
F0F0
6060
ENDCHAR

STARTCHAR copyright
ENCODING 169
SWIDTH 747 0
DWIDTH 28 0
BBX 27 27 1 0
BITMAP
003FC000
01E07000
03001800
04000600
08000300
101F9100
30607080
60C030C0
41801840
43800840
C7000020
87000020
87000020
87000020
87000020
87000020
C7800020
43800060
43C00840
61C010C0
20F06080
101F8180
18000300
04000600
03001C00
01E07000
003F8000
ENDCHAR

STARTCHAR ordfeminine
ENCODING 170
SWIDTH 333 0
DWIDTH 13 0
BBX 11 11 1 16
BITMAP
1F80
6380
61C0
01C0
0FC0
79C0
61C0
E1C0
E3C0
7DC0
39E0
ENDCHAR

STARTCHAR guillemotleft
ENCODING 171
SWIDTH 500 0
DWIDTH 19 0
BBX 15 14 2 2
BITMAP
0202
0606
0C0C
1C18
3838
7070
E0E0
E0E0
7070
3830
1818
0C0C
0606
0202
ENDCHAR

STARTCHAR logicalnot
ENCODING 172
SWIDTH 606 0
DWIDTH 23 0
BBX 19 9 2 9
BITMAP
FFFFE0
FFFFE0
FFFFE0
0000E0
0000E0
0000E0
0000E0
0000E0
0000E0
ENDCHAR

STARTCHAR hyphen
ENCODING 173
SWIDTH 333 0
DWIDTH 13 0
BBX 11 3 1 8
BITMAP
7FE0
FFC0
FFC0
ENDCHAR

STARTCHAR registered
ENCODING 174
SWIDTH 747 0
DWIDTH 28 0
BBX 27 27 1 0
BITMAP
007FC000
01C07000
07001C00
0C000600
18000300
13FF0180
20E1C080
60E1E0C0
40E0E040
40E0E060
C0E0E020
80E1E020
80E38020
80FE0020
80E70020
80E70020
C0E38060
40E1C060
40E1C040
60E0E0C0
20E07080
13F87900
08000300
0C000600
03001800
01E0F000
003F8000
ENDCHAR

STARTCHAR macron
ENCODING 175
SWIDTH 333 0
DWIDTH 13 0
BBX 9 2 2 21
BITMAP
FF80
FF80
ENDCHAR

STARTCHAR degree
ENCODING 176
SWIDTH 401 0
DWIDTH 15 0
BBX 12 12 2 15
BITMAP
1F80
3FC0
70E0
E070
C030
C030
C030
E030
E070
70E0
3FC0
1F80
ENDCHAR

STARTCHAR plusminus
ENCODING 177
SWIDTH 606 0
DWIDTH 23 0
BBX 19 23 2 0
BITMAP
00E000
00E000
00E000
00E000
00E000
00E000
00E000
00E000
FFFFE0
FFFFE0
FFFFE0
00E000
00E000
00E000
00E000
00E000
00E000
00E000
00E000
000000
FFFFE0
FFFFE0
FFFFE0
ENDCHAR

STARTCHAR twosuperior
ENCODING 178
SWIDTH 310 0
DWIDTH 12 0
BBX 11 16 0 11
BITMAP
1F00
7F80
63C0
41C0
40C0
00C0
00C0
0180
0300
0300
0600
0800
1000
2000
7FE0
FFE0
ENDCHAR

STARTCHAR threesuperior
ENCODING 179
SWIDTH 310 0
DWIDTH 12 0
BBX 11 16 0 11
BITMAP
1F00
3F80
61C0
40C0
00C0
0080
0100
0FC0
10E0
1060
0060
0060
C060
40C0
7180
7E00
ENDCHAR

STARTCHAR acute
ENCODING 180
SWIDTH 333 0
DWIDTH 13 0
BBX 8 7 3 19
BITMAP
01
07
0F
1C
38
60
80
ENDCHAR

STARTCHAR mu
ENCODING 181
SWIDTH 561 0
DWIDTH 21 0
BBX 18 24 2 -6
BITMAP
701C00
701C00
701C00
701C00
701C00
701C00
701C00
701C00
701C00
701C00
701C00
701C00
701C00
701C00
782C40
78DE80
7F8F80
5F0F00
600000
E00000
E00000
E00000
E00000
E00000
ENDCHAR

STARTCHAR paragraph
ENCODING 182
SWIDTH 628 0
DWIDTH 24 0
BBX 19 36 3 -9
BITMAP
07FFE0
1FE380
3FE300
7FE300
FFE300
FFE300
FFE300
FFE300
FFE300
FFE300
7FE300
7FE300
3FE300
0FE300
006300
006300
006300
006300
006300
006300
006300
006300
006300
006300
006300
006300
006300
006300
006300
006300
006300
006300
006300
006300
006300
006300
ENDCHAR

STARTCHAR periodcentered
ENCODING 183
SWIDTH 250 0
DWIDTH 10 0
BBX 4 4 3 12
BITMAP
F0
F0
F0
F0
ENDCHAR

STARTCHAR cedilla
ENCODING 184
SWIDTH 333 0
DWIDTH 13 0
BBX 8 7 3 -7
BITMAP
08
18
1F
03
03
C7
7E
ENDCHAR

STARTCHAR onesuperior
ENCODING 185
SWIDTH 310 0
DWIDTH 12 0
BBX 9 16 1 10
BITMAP
0400
3C00
EC00
8C00
0C00
0C00
0C00
0C00
0C00
0C00
0C00
0C00
0C00
0C00
0C00
7F80
ENDCHAR

STARTCHAR ordmasculine
ENCODING 186
SWIDTH 333 0
DWIDTH 13 0
BBX 12 11 0 16
BITMAP
1F80
31E0
60E0
6070
E070
E070
E070
6060
7060
38C0
1F00
ENDCHAR

STARTCHAR guillemotright
ENCODING 187
SWIDTH 500 0
DWIDTH 19 0
BBX 15 14 2 2
BITMAP
4080
C0C0
6060
3070
1838
1C1C
0E0E
0E0E
1C1C
1838
3030
6060
C0C0
8080
ENDCHAR

STARTCHAR onequarter
ENCODING 188
SWIDTH 788 0
DWIDTH 30 0
BBX 27 28 2 -1
BITMAP
00001800
04001800
3C003000
EC002000
8C006000
0C004000
0C00C000
0C008000
0C018000
0C010000
0C030000
0C020100
0C060300
0C040700
0C0C0D00
0C080B00
7F981300
00103300
00302300
00204300
00604300
0040FFE0
00C0FFE0
00800300
01800300
01000300
03001FE0
06000000
ENDCHAR

STARTCHAR onehalf
ENCODING 189
SWIDTH 788 0
DWIDTH 30 0
BBX 28 28 1 -1
BITMAP
00000C00
0C001800
3C001000
EC003000
8C002000
0C006000
0C004000
0C00C000
0C008000
0C018000
0C010000
0C031F80
0C023FC0
0C0631E0
0C0420E0
0C0C6060
7F980060
00180060
003000C0
002001C0
00600180
00400300
00C00400
00800800
01801000
01003FF0
03007FF0
06000000
ENDCHAR

STARTCHAR threequarters
ENCODING 190
SWIDTH 788 0
DWIDTH 30 0
BBX 28 28 1 -1
BITMAP
1F000C00
3F800800
61C01800
40C01000
00C03000
00806000
01006000
0FC0C000
10E0C000
10618000
00618080
00630180
C0620380
40C60680
71840580
7E0C0980
00081980
00181180
00102180
00304180
00207FF0
00607FF0
00400180
00C00180
00800180
01800FF0
01000000
03000000
ENDCHAR

STARTCHAR questiondown
ENCODING 191
SWIDTH 444 0
DWIDTH 17 0
BBX 13 27 2 -9
BITMAP
0780
0780
0780
0380
0000
0000
0000
0300
0180
0180
0180
0300
0700
0E00
1C00
3800
7800
7000
E000
E000
E000
F018
F010
F830
7FF0
3FE0
0F80
ENDCHAR

STARTCHAR Agrave
ENCODING 192
SWIDTH 778 0
DWIDTH 30 0
BBX 28 35 1 0
BITMAP
00100000
00380000
003C0000
000E0000
00070000
00018000
00004000
00000000
00060000
00060000
000F0000
000F0000
000F8000
001B8000
001B8000
0033C000
0031C000
0061E000
0061E000
00C0F000
00C0F000
00C07000
01807800
01003800
03FFFC00
03FFFC00
06001E00
06001E00
06000E00
0C000F00
0C000F00
1C000780
18000780
3E000FC0
FF003FF0
ENDCHAR

STARTCHAR Aacute
ENCODING 193
SWIDTH 778 0
DWIDTH 30 0
BBX 28 35 1 0
BITMAP
00004000
0001C000
0003C000
00078000
000E0000
00180000
00300000
00000000
00060000
00060000
000F0000
000F0000
000F8000
001B8000
001B8000
0033C000
0031C000
0061E000
0061E000
00C0F000
00C0F000
00C07000
01807800
01003800
03FFFC00
03FFFC00
06001E00
06001E00
06000E00
0C000F00
0C000F00
1C000780
18000780
3E000FC0
FF003FF0
ENDCHAR

STARTCHAR Acircumflex
ENCODING 194
SWIDTH 778 0
DWIDTH 30 0
BBX 28 35 1 0
BITMAP
00060000
000F0000
001F0000
00398000
0030C000
00606000
00802000
00000000
00060000
00060000
000F0000
000F0000
000F8000
001B8000
001B8000
0033C000
0031C000
0061E000
0061E000
00C0F000
00C0F000
00C07000
01807800
01003800
03FFFC00
03FFFC00
06001E00
06001E00
06000E00
0C000F00
0C000F00
1C000780
18000780
3E000FC0
FF003FF0
ENDCHAR

STARTCHAR Atilde
ENCODING 195
SWIDTH 778 0
DWIDTH 30 0
BBX 28 33 1 0
BITMAP
00781800
00FF1000
018FE000
0101C000
00000000
00000000
00060000
00060000
000F0000
000F0000
000F8000
001B8000
001B8000
0033C000
0031C000
0061E000
0061E000
00C0F000
00C0F000
00C07000
01807800
01003800
03FFFC00
03FFFC00
06001E00
06001E00
06000E00
0C000F00
0C000F00
1C000780
18000780
3E000FC0
FF003FF0
ENDCHAR

STARTCHAR Adieresis
ENCODING 196
SWIDTH 778 0
DWIDTH 30 0
BBX 28 33 1 0
BITMAP
00606000
00F0F000
00F0F000
00607000
00000000
00000000
00060000
00070000
00070000
000F0000
000F8000
001B8000
001BC000
0033C000
0031C000
0031E000
0060E000
0060F000
00C0F000
00C07800
01807800
01803800
01FFFC00
03FFFC00
03001E00
06001E00
06000F00
0E000F00
0C000F00
1C000780
1C000780
3E000FE0
FF803FF0
ENDCHAR

STARTCHAR Aring
ENCODING 197
SWIDTH 778 0
DWIDTH 30 0
BBX 27 36 1 0
BITMAP
001F0000
00318000
00208000
00208000
00208000
00318000
001F0000
00000000
00000000
00060000
00060000
000E0000
000F0000
001F0000
001B8000
00178000
00338000
0033C000
0061C000
0061E000
00C1E000
00C0F000
0180F000
01807000
01007800
03FFF800
03FFFC00
06003C00
06001E00
0E001E00
0C001E00
0C000F00
18000F00
38000780
7E001FC0
FF007FE0
ENDCHAR

STARTCHAR AE
ENCODING 198
SWIDTH 944 0
DWIDTH 36 0
BBX 35 27 0 0
BITMAP
001FFFFFC0
0001BFFFC0
0003B800C0
0003380080
0003380080
0006380080
000C380000
000C380000
0018380000
0018380200
0030380200
0030380200
0060380E00
00603FFE00
00C0380600
0080380200
01FFF80200
03FFF80200
0300380000
0700380000
0600380000
0C00380060
0C00380040
1800380040
18003800C0
7E007FFFC0
FF80FFFFC0
ENDCHAR

STARTCHAR Ccedilla
ENCODING 199
SWIDTH 709 0
DWIDTH 27 0
BBX 24 34 2 -7
BITMAP
001FE0
00FFFF
03C01F
070007
1E0002
1C0002
3C0002
780000
780000
700000
F00000
F00000
F00000
F00000
F00000
F00000
F00000
780000
780000
7C0000
3C0000
1E0000
0F0000
07C001
03F00F
00FFFC
003FE0
000200
000700
0007C0
0000E0
0000E0
0011C0
001F80
ENDCHAR

STARTCHAR Egrave
ENCODING 200
SWIDTH 611 0
DWIDTH 23 0
BBX 21 35 1 0
BITMAP
038000
01C000
01E000
007000
003800
000E00
000000
000000
FFFFF0
3FFFF0
1E0070
0E0020
0E0020
0E0020
0E0000
0E0000
0E0000
0E0080
0E0080
0E0080
0FFF80
0FFF80
0E0080
0E0080
0E0080
0E0080
0E0000
0E0000
0E0018
0E0010
0E0010
0E0010
1E0030
1FFFF0
FFFFF0
ENDCHAR

STARTCHAR Eacute
ENCODING 201
SWIDTH 611 0
DWIDTH 23 0
BBX 21 35 1 0
BITMAP
000600
000E00
001C00
003800
006000
018000
000000
000000
FFFFF0
3FFFF0
1E0070
0E0020
0E0020
0E0020
0E0000
0E0000
0E0000
0E0080
0E0080
0E0080
0FFF80
0FFF80
0E0080
0E0080
0E0080
0E0080
0E0000
0E0000
0E0018
0E0010
0E0010
0E0010
1E0030
1FFFF0
FFFFF0
ENDCHAR

STARTCHAR Ecircumflex
ENCODING 202
SWIDTH 611 0
DWIDTH 23 0
BBX 21 35 1 0
BITMAP
006000
00F000
00D800
019C00
030C00
060300
000000
000000
FFFFF0
3FFFF0
1E0070
0E0020
0E0020
0E0020
0E0000
0E0000
0E0000
0E0080
0E0080
0E0080
0FFF80
0FFF80
0E0080
0E0080
0E0080
0E0080
0E0000
0E0000
0E0018
0E0010
0E0010
0E0010
1E0030
1FFFF0
FFFFF0
ENDCHAR

STARTCHAR Edieresis
ENCODING 203
SWIDTH 611 0
DWIDTH 23 0
BBX 21 33 0 0
BITMAP
078300
078780
078780
070300
000000
000000
FFFFF8
1FFFF8
0F0030
0F0010
0F0010
0F0010
0F0000
0F0000
0F0000
0F0040
0F0040
0F00C0
0FFFC0
0FFFC0
0F00C0
0F0040
0F0040
0F0040
0F0000
0F0000
0F0008
0F0008
0F0008
0F0018
0F0018
1FFFF8
7FFFF8
ENDCHAR

STARTCHAR Igrave
ENCODING 204
SWIDTH 337 0
DWIDTH 13 0
BBX 11 35 1 0
BITMAP
3000
3800
1C00
0E00
0300
00C0
0000
0000
FFE0
1F00
0E00
0E00
0E00
0E00
0E00
0E00
0E00
0E00
0E00
0E00
0E00
0E00
0E00
0E00
0E00
0E00
0E00
0E00
0E00
0E00
0E00
0E00
0E00
1F00
FFE0
ENDCHAR

STARTCHAR Iacute
ENCODING 205
SWIDTH 337 0
DWIDTH 13 0
BBX 11 35 1 0
BITMAP
00C0
01C0
0380
0700
0C00
3000
0000
0000
FFE0
1F00
0E00
0E00
0E00
0E00
0E00
0E00
0E00
0E00
0E00
0E00
0E00
0E00
0E00
0E00
0E00
0E00
0E00
0E00
0E00
0E00
0E00
0E00
0E00
1F00
FFE0
ENDCHAR

STARTCHAR Icircumflex
ENCODING 206
SWIDTH 337 0
DWIDTH 13 0
BBX 11 35 1 0
BITMAP
0E00
1F00
1B00
3180
60C0
C060
0000
0000
FFE0
1F00
0E00
0E00
0E00
0E00
0E00
0E00
0E00
0E00
0E00
0E00
0E00
0E00
0E00
0E00
0E00
0E00
0E00
0E00
0E00
0E00
0E00
0E00
0E00
1F00
FFE0
ENDCHAR

STARTCHAR Idieresis
ENCODING 207
SWIDTH 337 0
DWIDTH 13 0
BBX 12 33 0 0
BITMAP
7060
F0F0
F0F0
7060
0000
0000
7FE0
0F00
0F00
0700
0700
0700
0700
0700
0700
0700
0700
0700
0700
0700
0700
0700
0700
0700
0700
0700
0700
0700
0F00
0F00
0F00
0F80
7FE0
ENDCHAR

STARTCHAR Gbreve
ENCODING 208
SWIDTH 763 0
DWIDTH 29 0
BBX 27 34 1 0
BITMAP
00C02000
00406000
00604000
0071C000
003F8000
001F0000
00000000
000FF000
00FFFF00
03E00FC0
070001C0
0E000080
1C000080
3C000080
78000000
78000000
70000000
F0000000
F0000000
F0000000
F0000000
F0000000
F0000000
F0003FE0
780003C0
780003C0
7C0003C0
3C0003C0
1E0003C0
1F0003C0
07C003C0
03F00FC0
00FFFE00
001FE000
ENDCHAR

STARTCHAR Ntilde
ENCODING 209
SWIDTH 831 0
DWIDTH 32 0
BBX 29 35 1 -1
BITMAP
003C0800
007F1800
00C7F000
0081E000
00000000
00000000
00000000
FE000FF8
3E0001C0
1F0000C0
1F8000C0
1BC000C0
1BC000C0
19E000C0
19F000C0
18F800C0
187C00C0
183C00C0
181E00C0
181F00C0
180F80C0
180780C0
1803C0C0
1803E0C0
1801F0C0
1800F8C0
180078C0
18003CC0
18003EC0
18001FC0
18000FC0
180007C0
3C0003C0
FF0001C0
00000040
ENDCHAR

STARTCHAR Ograve
ENCODING 210
SWIDTH 786 0
DWIDTH 30 0
BBX 28 34 1 0
BITMAP
00380000
001C0000
000E0000
00070000
00018000
00004000
00000000
001FC000
01FFF800
03803E00
0F000F00
1E000780
3C0003C0
380003E0
780001E0
700001E0
700000F0
F00000F0
F00000F0
F00000F0
F00000F0
F00000F0
F00000F0
F00000E0
780000E0
780001E0
7C0001C0
3C0001C0
3E000380
1F000700
0F800E00
07E03C00
01FFE000
003F0000
ENDCHAR

STARTCHAR Oacute
ENCODING 211
SWIDTH 786 0
DWIDTH 30 0
BBX 28 34 1 0
BITMAP
0000E000
0001C000
00038000
00070000
000C0000
00300000
00000000
001FC000
01FFF800
03803E00
0F000F00
1E000780
3C0003C0
380003E0
780001E0
700001E0
700000F0
F00000F0
F00000F0
F00000F0
F00000F0
F00000F0
F00000F0
F00000E0
780000E0
780001E0
7C0001C0
3C0001C0
3E000380
1F000700
0F800E00
07E03C00
01FFE000
003F0000
ENDCHAR

STARTCHAR Ocircumflex
ENCODING 212
SWIDTH 786 0
DWIDTH 30 0
BBX 28 34 1 0
BITMAP
000F0000
000F0000
00198000
0030C000
00606000
00C03000
00000000
001FC000
01FFF800
03803E00
0F000F00
1E000780
3C0003C0
380003E0
780001E0
700001E0
700000F0
F00000F0
F00000F0
F00000F0
F00000F0
F00000F0
F00000F0
F00000E0
780000E0
780001E0
7C0001C0
3C0001C0
3E000380
1F000700
0F800E00
07E03C00
01FFE000
003F0000
ENDCHAR

STARTCHAR Otilde
ENCODING 213
SWIDTH 786 0
DWIDTH 30 0
BBX 28 33 1 0
BITMAP
003C0800
00FF1000
008FF000
0101C000
00000000
00000000
001FC000
01FFF800
03803E00
0F000F00
1E000780
3C0003C0
380003E0
780001E0
700001E0
700000F0
F00000F0
F00000F0
F00000F0
F00000F0
F00000F0
F00000F0
F00000E0
780000E0
780001E0
7C0001C0
3C0001C0
3E000380
1F000700
0F800E00
07E03C00
01FFE000
003F0000
ENDCHAR

STARTCHAR Odieresis
ENCODING 214
SWIDTH 786 0
DWIDTH 30 0
BBX 28 32 1 0
BITMAP
00606000
00F0F000
00F0F000
00606000
00000000
001FC000
01FFF800
03803E00
0F000F00
1C000780
3C0003C0
380003E0
780001E0
700001E0
700000F0
F00000F0
F00000F0
F00000F0
F00000F0
F00000F0
F00000F0
F00000E0
780000E0
780001E0
780001C0
3C0001C0
3E000380
1F000700
0F800E00
07E03C00
01FFE000
003F0000
ENDCHAR

STARTCHAR multiply
ENCODING 215
SWIDTH 606 0
DWIDTH 23 0
BBX 17 16 3 5
BITMAP
200200
F00780
780F00
3C1E00
1E3C00
0F7800
07F000
01C000
03E000
07F000
0F7800
1E3C00
3C1E00
F80F80
700700
200200
ENDCHAR

STARTCHAR Oslash
ENCODING 216
SWIDTH 833 0
DWIDTH 32 0
BBX 28 29 2 -1
BITMAP
00000020
001FC070
01FFF8E0
03803EC0
0F000F80
1C000780
3C0007C0
38000DE0
780019E0
700031E0
700060F0
F000C0F0
F00180F0
F00300F0
F00600F0
F00C00F0
F01C00F0
F03800F0
783000E0
786001E0
7CC001C0
3D8001C0
3E000380
1F000700
0F800E00
1BE03C00
31FFF000
603F8000
20000000
ENDCHAR

STARTCHAR Ugrave
ENCODING 217
SWIDTH 778 0
DWIDTH 30 0
BBX 28 35 0 0
BITMAP
00180000
003C0000
001E0000
00070000
00018000
0000E000
00000000
00000000
FFE01FF0
1F0003C0
0E000180
0E000180
0E000180
0E000180
0E000180
0E000180
0E000180
0E000180
0E000180
0E000180
0E000180
0E000180
0E000180
0E000180
0E000180
0E000180
0E000180
0E000180
0F000180
0F000300
0F800300
07C00E00
03F03C00
01FFF800
007FE000
ENDCHAR

STARTCHAR Uacute
ENCODING 218
SWIDTH 778 0
DWIDTH 30 0
BBX 28 35 0 0
BITMAP
00006000
0001E000
0003C000
00070000
000E0000
00180000
00000000
00000000
FFE01FF0
1F0003C0
0E000180
0E000180
0E000180
0E000180
0E000180
0E000180
0E000180
0E000180
0E000180
0E000180
0E000180
0E000180
0E000180
0E000180
0E000180
0E000180
0E000180
0E000180
0F000180
0F000300
0F800300
07C00E00
03F03C00
01FFF800
007FE000
ENDCHAR

STARTCHAR Ucircumflex
ENCODING 219
SWIDTH 778 0
DWIDTH 30 0
BBX 28 35 0 0
BITMAP
00070000
000F0000
001D8000
0018C000
00306000
00603000
00000000
00000000
FFE01FF0
1F0003C0
0E000180
0E000180
0E000180
0E000180
0E000180
0E000180
0E000180
0E000180
0E000180
0E000180
0E000180
0E000180
0E000180
0E000180
0E000180
0E000180
0E000180
0E000180
0F000180
0F000300
0F800300
07C00E00
03F03C00
01FFF800
007FE000
ENDCHAR

STARTCHAR Udieresis
ENCODING 220
SWIDTH 778 0
DWIDTH 30 0
BBX 28 33 1 0
BITMAP
00607000
00F0F000
00F0F000
00606000
00000000
00000000
FFE01FF0
1F0003C0
0E000180
0E000180
0E000180
0E000180
0E000180
0E000180
0E000180
0E000180
0E000180
0E000180
0E000180
0E000180
0E000180
0E000180
0E000180
0E000180
0E000180
0E000180
0F000180
0F000300
0F000700
07800E00
03F07C00
01FFF800
007FE000
ENDCHAR

STARTCHAR Idotaccent
ENCODING 221
SWIDTH 337 0
DWIDTH 13 0
BBX 11 33 1 0
BITMAP
0600
0F00
0F00
0600
0000
0000
FFE0
1F00
0E00
0E00
0E00
0E00
0E00
0E00
0E00
0E00
0E00
0E00
0E00
0E00
0E00
0E00
0E00
0E00
0E00
0E00
0E00
0E00
0E00
0E00
0E00
1F00
FFE0
ENDCHAR

STARTCHAR Scedilla
ENCODING 222
SWIDTH 525 0
DWIDTH 20 0
BBX 19 34 0 -7
BITMAP
01F800
0FFFC0
3C0780
780180
700080
E00080
E00080
E00000
E00000
F00000
F80000
7C0000
7FFC00
3FFF80
0FFFC0
000FE0
0003E0
0001E0
0000E0
0000E0
4000E0
4000E0
4001C0
400180
600300
781E00
3FF800
018000
008000
01F000
003000
003000
047000
07E000
ENDCHAR

STARTCHAR germandbls
ENCODING 223
SWIDTH 556 0
DWIDTH 21 0
BBX 19 28 0 0
BITMAP
003E00
00FF00
018380
0201C0
0600C0
0E00C0
1C00C0
1C00C0
1C00C0
1C00C0
1C0780
3C0F80
7C1880
1C3000
1C3000
1C3800
1C3E00
1C1F80
1C0FC0
1C03E0
1C01E0
1C00E0
1C0060
1C2060
1C2040
1C3080
3E7F00
FF9C00
ENDCHAR

STARTCHAR agrave
ENCODING 224
SWIDTH 500 0
DWIDTH 19 0
BBX 17 26 1 0
BITMAP
040000
0E0000
070000
038000
00C000
003000
001800
000000
07E000
1FF000
707800
603C00
601C00
001C00
001C00
00FC00
0F9C00
3C1C00
701C00
E01C00
E01C00
E01C00
E07C00
F0DC00
7F1E00
1C1F80
ENDCHAR

STARTCHAR aacute
ENCODING 225
SWIDTH 500 0
DWIDTH 19 0
BBX 17 26 1 0
BITMAP
001000
003800
007000
00E000
018000
030000
040000
000000
07E000
1FF000
707800
603C00
601C00
001C00
001C00
00FC00
0F9C00
3C1C00
701C00
E01C00
E01C00
E01C00
E07C00
F0DC00
7F1E00
1C1F80
ENDCHAR

STARTCHAR acircumflex
ENCODING 226
SWIDTH 500 0
DWIDTH 19 0
BBX 17 26 1 0
BITMAP
018000
03C000
03E000
067000
0C3000
081800
100C00
000000
07E000
1FF000
707800
603C00
601C00
001C00
001C00
00FC00
0F9C00
3C1C00
701C00
E01C00
E01C00
E01C00
E07C00
F0DC00
7F1E00
1C1F80
ENDCHAR

STARTCHAR atilde
ENCODING 227
SWIDTH 500 0
DWIDTH 19 0
BBX 17 25 1 0
BITMAP
0F0200
1FC600
33FC00
207800
000000
000000
000000
07E000
1FF000
707800
603C00
601C00
001C00
001C00
00FC00
0F9C00
3C1C00
701C00
E01C00
E01C00
E01C00
E07C00
F0DC00
7F1E00
1C1F80
ENDCHAR

STARTCHAR adieresis
ENCODING 228
SWIDTH 500 0
DWIDTH 19 0
BBX 17 24 2 0
BITMAP
181800
3C3C00
3C3C00
1C1800
000000
000000
07E000
1FF000
707800
603C00
601C00
001C00
001C00
00FC00
0F9C00
3C1C00
701C00
E01C00
E01C00
E01C00
E07C00
F0DC00
7F9E00
1C1F80
ENDCHAR

STARTCHAR aring
ENCODING 229
SWIDTH 500 0
DWIDTH 19 0
BBX 17 28 1 0
BITMAP
03E000
072000
063000
041000
041000
063000
036000
01C000
000000
000000
07E000
1FF000
707800
603C00
601C00
001C00
001C00
00FC00
0F9C00
3C1C00
701C00
F01C00
E01C00
E01C00
F03C00
F0DC00
7F9E00
1E1F80
ENDCHAR

STARTCHAR ae
ENCODING 230
SWIDTH 758 0
DWIDTH 29 0
BBX 26 18 1 0
BITMAP
07E0FE00
1FF38F00
307E0380
603E03C0
603C01C0
001C01C0
001C01C0
001C01C0
07FFFFC0
3E1C0000
701C0000
F01C0000
E01C0000
E01E0000
F02F0040
F8C78180
7F83FF00
3E00FC00
ENDCHAR

STARTCHAR ccedilla
ENCODING 231
SWIDTH 444 0
DWIDTH 17 0
BBX 14 25 1 -7
BITMAP
01F8
07FC
1C1C
300C
7004
6004
E000
E000
E000
E000
E000
F000
F000
7000
7800
3C00
3F0C
0FF8
01E0
0080
01E0
0070
0030
0470
07E0
ENDCHAR

STARTCHAR egrave
ENCODING 232
SWIDTH 479 0
DWIDTH 18 0
BBX 16 26 1 0
BITMAP
0400
0F00
0780
01C0
00E0
0038
0000
0000
03F8
0E3C
180E
380F
7007
7007
7007
F007
FFFF
F000
F000
F000
7000
7800
3C01
3E06
0FFE
03F0
ENDCHAR

STARTCHAR eacute
ENCODING 233
SWIDTH 479 0
DWIDTH 18 0
BBX 16 26 1 0
BITMAP
0018
0038
0070
01E0
0380
0600
0000
0000
03F8
0E3C
180E
380F
7007
7007
7007
F007
FFFF
F000
F000
F000
7000
7800
3C01
3E06
0FFE
03F0
ENDCHAR

STARTCHAR ecircumflex
ENCODING 234
SWIDTH 479 0
DWIDTH 18 0
BBX 16 26 1 0
BITMAP
0180
03C0
0760
0670
0C30
180C
0000
0000
03F8
0E3C
180E
380F
7007
7007
7007
F007
FFFF
F000
F000
F000
7000
7800
3C01
3E06
0FFE
03F0
ENDCHAR

STARTCHAR edieresis
ENCODING 235
SWIDTH 479 0
DWIDTH 18 0
BBX 16 24 1 0
BITMAP
1818
3C3C
3C3C
1818
0000
0000
03F8
0E3C
181E
300F
700F
7007
F007
F007
FFFF
F000
F000
F000
7000
7800
7C01
3E06
1FFE
03F0
ENDCHAR

STARTCHAR igrave
ENCODING 236
SWIDTH 287 0
DWIDTH 11 0
BBX 9 25 1 0
BITMAP
E000
7000
3800
0C00
0600
0180
0000
0400
7C00
FC00
1C00
1C00
1C00
1C00
1C00
1C00
1C00
1C00
1C00
1C00
1C00
1C00
1C00
3E00
FF80
ENDCHAR

STARTCHAR iacute
ENCODING 237
SWIDTH 287 0
DWIDTH 11 0
BBX 9 25 1 0
BITMAP
0380
0780
0F00
1C00
3000
4000
0000
0400
7C00
FC00
1C00
1C00
1C00
1C00
1C00
1C00
1C00
1C00
1C00
1C00
1C00
1C00
1C00
3E00
FF80
ENDCHAR

STARTCHAR icircumflex
ENCODING 238
SWIDTH 287 0
DWIDTH 11 0
BBX 11 25 0 0
BITMAP
0E00
1F00
3B00
7180
40C0
8060
0000
0200
3E00
7E00
0E00
0E00
0E00
0E00
0E00
0E00
0E00
0E00
0E00
0E00
0E00
0E00
0E00
1F00
7FC0
ENDCHAR

STARTCHAR idieresis
ENCODING 239
SWIDTH 287 0
DWIDTH 11 0
BBX 12 23 -1 0
BITMAP
7060
F0F0
F0F0
6060
0000
0100
1F00
7F00
0700
0700
0700
0700
0700
0700
0700
0700
0700
0700
0700
0700
0700
0F80
7FE0
ENDCHAR

STARTCHAR gbreve
ENCODING 240
SWIDTH 556 0
DWIDTH 21 0
BBX 19 35 2 -10
BITMAP
080200
0C0600
040C00
071C00
03F800
01F000
000000
03F000
0E7800
183FE0
381FC0
300E00
700E00
700E00
700E00
780C00
381C00
3C3000
0FE000
040000
180000
380000
3C0000
3FFF80
0FFF80
1803C0
7001C0
6001C0
E001C0
E001C0
E00180
F00300
700700
3C1C00
0FF000
ENDCHAR

STARTCHAR ntilde
ENCODING 241
SWIDTH 582 0
DWIDTH 22 0
BBX 21 25 1 0
BITMAP
03C080
07F100
0C7F00
081E00
000000
000000
000000
1C7E00
FCFF80
3D8F80
1E03C0
1C03C0
1C01C0
1C01C0
1C01C0
1C01C0
1C01C0
1C01C0
1C01C0
1C01C0
1C01C0
1C01C0
1C01C0
3E01E0
FF81F8
ENDCHAR

STARTCHAR ograve
ENCODING 242
SWIDTH 546 0
DWIDTH 21 0
BBX 18 26 1 0
BITMAP
060000
070000
038000
01E000
007000
001C00
000000
000000
07F800
1E1E00
380F00
700780
7003C0
F003C0
E003C0
E003C0
E001C0
E001C0
F001C0
F001C0
F00380
780380
780300
3C0600
1F1C00
07F000
ENDCHAR

STARTCHAR oacute
ENCODING 243
SWIDTH 546 0
DWIDTH 21 0
BBX 18 26 1 0
BITMAP
000C00
003C00
007800
00E000
01C000
070000
000000
000000
07F800
1E1E00
380F00
700780
7003C0
F003C0
E003C0
E003C0
E001C0
E001C0
F001C0
F001C0
F00380
780380
780300
3C0600
1F1C00
07F000
ENDCHAR

STARTCHAR ocircumflex
ENCODING 244
SWIDTH 546 0
DWIDTH 21 0
BBX 18 26 1 0
BITMAP
00C000
01E000
03B000
073800
061800
1C0E00
000000
000000
07F800
1E1E00
380F00
700780
7003C0
F003C0
E003C0
E003C0
E001C0
E001C0
F001C0
F001C0
F00380
780380
780300
3C0600
1F1C00
07F000
ENDCHAR

STARTCHAR otilde
ENCODING 245
SWIDTH 546 0
DWIDTH 21 0
BBX 18 25 1 0
BITMAP
0F8100
1FE200
11FE00
207C00
000000
000000
000000
07F800
1E1E00
380F00
700780
7003C0
F003C0
E003C0
E003C0
E001C0
E001C0
F001C0
F001C0
F00380
780380
780300
3C0600
1F1C00
07F000
ENDCHAR

STARTCHAR odieresis
ENCODING 246
SWIDTH 546 0
DWIDTH 21 0
BBX 18 24 1 0
BITMAP
0C0C00
1E1E00
1E1E00
0C0C00
000000
000000
07F800
1E1E00
380F00
700780
7003C0
F003C0
E003C0
E003C0
E001C0
E001C0
F001C0
F001C0
F00380
780380
780300
3C0600
1F1C00
07F000
ENDCHAR

STARTCHAR divide
ENCODING 247
SWIDTH 606 0
DWIDTH 23 0
BBX 18 16 3 5
BITMAP
01E000
01E000
01E000
01E000
000000
000000
000000
FFFFC0
FFFFC0
FFFFC0
000000
000000
00C000
01E000
01E000
01E000
ENDCHAR

STARTCHAR oslash
ENCODING 248
SWIDTH 556 0
DWIDTH 21 0
BBX 19 20 1 -1
BITMAP
000060
03FCE0
0F0FC0
1C0780
3803C0
3807E0
780DE0
7019E0
7030E0
7060E0
78C0E0
7980E0
7B80E0
7F01C0
3E01C0
3C0180
1E0300
378E00
E3F800
400000
ENDCHAR

STARTCHAR ugrave
ENCODING 249
SWIDTH 603 0
DWIDTH 23 0
BBX 21 26 1 0
BITMAP
018000
01C000
01E000
007000
001800
000E00
000000
000000
0C0040
FC0FC0
1C0FC0
1C01C0
1C01C0
1C01C0
1C01C0
1C01C0
1C01C0
1C01C0
1C01C0
1C01C0
1C03C0
1C03C0
1E06C0
1F1DC0
0FF9E0
07E1F8
ENDCHAR

STARTCHAR uacute
ENCODING 250
SWIDTH 603 0
DWIDTH 23 0
BBX 21 26 1 0
BITMAP
000600
000E00
001C00
003800
006000
018000
000000
000000
0C0040
FC0FC0
1C0FC0
1C01C0
1C01C0
1C01C0
1C01C0
1C01C0
1C01C0
1C01C0
1C01C0
1C01C0
1C03C0
1C03C0
1E06C0
1F1DC0
0FF9E0
07E1F8
ENDCHAR

STARTCHAR ucircumflex
ENCODING 251
SWIDTH 603 0
DWIDTH 23 0
BBX 21 26 1 0
BITMAP
007000
007800
00D800
018C00
030600
060300
000000
000000
0C0040
FC0FC0
1C0FC0
1C01C0
1C01C0
1C01C0
1C01C0
1C01C0
1C01C0
1C01C0
1C01C0
1C01C0
1C03C0
1C03C0
1E06C0
1F0DC0
0FF9E0
07E1F8
ENDCHAR

STARTCHAR udieresis
ENCODING 252
SWIDTH 603 0
DWIDTH 23 0
BBX 21 24 1 0
BITMAP
070600
0F0F00
0F0F00
070600
000000
000000
0C0040
FC0FC0
1C0FC0
1C01C0
1C01C0
1C01C0
1C01C0
1C01C0
1C01C0
1C01C0
1C01C0
1C01C0
1C03C0
1C03C0
1E06C0
1F1DC0
0FF9E0
07E1F8
ENDCHAR

STARTCHAR dotlessi
ENCODING 253
SWIDTH 287 0
DWIDTH 11 0
BBX 9 18 1 0
BITMAP
0400
7C00
FC00
1C00
1C00
1C00
1C00
1C00
1C00
1C00
1C00
1C00
1C00
1C00
1C00
1C00
3E00
FF80
ENDCHAR

STARTCHAR scedilla
ENCODING 254
SWIDTH 424 0
DWIDTH 16 0
BBX 14 25 1 -7
BITMAP
1FF0
3878
7010
E010
E010
E000
F800
7F80
3FF0
1FF8
00FC
003C
801C
801C
C018
C038
F070
7FC0
0200
0400
07C0
00C0
00C0
11C0
3F80
ENDCHAR

STARTCHAR ydieresis
ENCODING 255
SWIDTH 556 0
DWIDTH 21 0
BBX 20 34 0 -10
BITMAP
060600
0F0F00
0F0F00
060600
000000
000000
FF87F0
3C00C0
1C01C0
1E0180
1E0180
0E0300
0F0300
070200
070600
078400
038C00
03C800
01C800
01F800
00F000
00F000
00E000
006000
004000
004000
00C000
008000
018000
010000
030000
660000
7E0000
7C0000
ENDCHAR
ENDFONT
